<svg width="24" height="24" viewBox="0 0 24 24" fill="none" xmlns="http://www.w3.org/2000/svg">
<path d="M18.3547 15.5396C20.6139 16.1452 22.65 15.873 22.9024 14.9318C23.1547 13.9906 21.5278 12.7366 19.2685 12.1311C17.0092 11.5255 14.9732 11.7976 14.7208 12.7388C14.4684 13.6801 16.0954 14.934 18.3547 15.5396Z" fill="#F59E0B"/>
<path d="M12.1313 19.2687C12.7369 21.528 13.9908 23.1549 14.9321 22.9026C15.8733 22.6502 16.1454 20.6141 15.5398 18.3549C14.9343 16.0956 13.6803 14.4687 12.7391 14.721C11.7979 14.9734 11.5258 17.0094 12.1313 19.2687Z" fill="#F59E0B"/>
<path d="M5.77515 15.7286C4.12116 17.3826 3.33902 19.2821 4.02818 19.9713C4.71734 20.6604 6.61683 19.8783 8.27082 18.2243C9.92481 16.5703 10.707 14.6708 10.0178 13.9817C9.32863 13.2925 7.42913 14.0746 5.77515 15.7286Z" fill="#F59E0B"/>
<path d="M5.64535 8.46042C3.38607 7.85485 1.34999 8.12696 1.09763 9.06819C0.845272 10.0094 2.4722 11.2634 4.73148 11.8689C6.99076 12.4745 9.02684 12.2024 9.2792 11.2612C9.53156 10.3199 7.90463 9.06599 5.64535 8.46042Z" fill="#F59E0B"/>
<path d="M11.8687 4.73127C11.2631 2.47199 10.0092 0.84506 9.06793 1.09742C8.12669 1.34977 7.85458 3.38585 8.46015 5.64513C9.06573 7.90442 10.3197 9.53135 11.2609 9.27899C12.2021 9.02664 12.4742 6.99055 11.8687 4.73127Z" fill="#F59E0B"/>
<path d="M18.2249 8.27137C19.8788 6.61738 20.661 4.71789 19.9718 4.02873C19.2827 3.33956 17.3832 4.12171 15.7292 5.77569C14.0752 7.42968 13.293 9.32918 13.9822 10.0183C14.6714 10.7075 16.5709 9.92535 18.2249 8.27137Z" fill="#F59E0B"/>
</svg>
